<?xml version="1.0" encoding="utf-8"?>
<!-- Generator: Adobe Illustrator 20.1.0, SVG Export Plug-In . SVG Version: 6.00 Build 0)  -->
<svg version="1.1" id="Capa_1" xmlns="http://www.w3.org/2000/svg" xmlns:xlink="http://www.w3.org/1999/xlink" x="0px" y="0px"
	 viewBox="0 0 512 512" style="enable-background:new 0 0 512 512;" xml:space="preserve">
<style type="text/css">
	.st0{fill:#FFFFFF;}
</style>
<g>
	<path class="st0" d="M256,0C114.6,0,0,114.6,0,256c0,141.4,114.6,256,256,256c141.4,0,256-114.6,256-256C512,114.6,397.4,0,256,0z
		 M256,472c-119.3,0-216-96.7-216-216c0-119.3,96.7-216,216-216c119.3,0,216,96.7,216,216C472,375.3,375.3,472,256,472z"/>
	<path class="st0" d="M384,170.9c-4.3,2.6-17.2,7.7-29.3,9c7.7-4.5,19.2-19.2,22-30.9c-7.4,5.1-24.5,12.6-33,12.6c0,0,0,0,0,0
		c-9.6-10.8-23.2-17.6-38.2-17.6c-29.2,0-52.8,25.5-52.8,56.9c0,4.4,0.5,8.6,1.4,12.7h0c-39.6-1.1-85.8-22.4-111.9-59
		c-16,29.9-2.2,63,16,75.1c-6.2,0.5-17.7-0.8-23.1-6.4c-0.4,19.8,8.5,46,40.7,55.6c-6.2,3.6-17.2,2.6-22,1.8
		c1.7,16.8,23.4,38.6,47.2,38.6c-8.5,10.5-37.4,29.7-73.1,23.6c24.3,15.9,52.6,25.2,82.6,25.2c85.2,0,151.4-74.4,147.8-166.1
		c0-0.1,0-0.2,0-0.3c0-0.3,0-0.5,0-0.7c0-0.3,0-0.6,0-0.9C366.1,194.3,376.5,184.2,384,170.9z"/>
</g>
</svg>
